<svg version="1.2" xmlns="http://www.w3.org/2000/svg" viewBox="0 0 1033 720" width="1033" height="720">
	<title>New Project</title>
	<style>
		.s0 { fill: #ffffff } 
	</style>
	<path id="கி" class="s0" aria-label="கி"  d="m103.1 454.3q0 27.9 29.8 49.2 29.8 21.4 62.1 21.4 67.3 0 71.2-59.6v-43.3h-115.2q-47.9 0-47.9 32.3zm86.7-87.3h76.4v-87.4h-76.4zm58.3-221.4q0-59.5 42.1-94.5 42.4-34.9 107.4-34.9 60.2 0 104.2 40.1 43.4 39.5 43.4 98.4v411.6h-55v-407.7q0-35.6-27.9-59.6-28.5-24.6-64.7-24.6-42.4 0-68.9 18.8-26.2 18.8-26.2 55 0 55.3 49.2 77.7h66v53.7h-99.1v87.4h44.7q45 0 69.9 29.7 22 29.2 22 75.1 0 103.6-88 103.6-27.2 0-48.6-9.7l20.1-46q13.6 7.8 26.5 7.8 36.9 0 36.9-53.7 0-38.9-23.9-48.6-10.7-3.2-59.6-3.2v40.8q0 54.3-33.3 83.5-33.3 29.1-90.3 29.1-53.1 0-97.7-33-47.3-36.6-47.3-88.7 0-86.7 84.2-86.7h1.9v-141.1h146.9q-34.9-31.1-34.9-80.3zm-162.5 308.8q0 27.8 29.8 49.1 29.8 21.4 62.1 21.4 67.4 0 71.2-59.5v-43.4h-115.2q-47.9 0-47.9 32.4zm86.8-87.4h76.3v-87.4h-76.3zm58.2-221.4q0-59.5 42.1-94.5 42.4-34.9 107.4-34.9 60.2 0 104.2 40.1 43.4 39.5 43.4 98.4v411.6h-55v-407.7q0-35.6-27.8-59.6-28.5-24.6-64.8-24.6-42.4 0-68.9 18.8-26.2 18.8-26.2 55 0 55.4 49.2 77.7h66v53.7h-99v87.4h44.6q45 0 69.9 29.8 22 29.1 22 75 0 103.6-88 103.6-27.2 0-48.5-9.7l20-46q13.6 7.8 26.6 7.8 36.9 0 36.9-53.7 0-38.8-24-48.6-10.7-3.2-59.5-3.2v40.8q0 54.4-33.4 83.5-33.3 29.1-90.3 29.1-53 0-97.7-33-47.2-36.6-47.2-88.7 0-86.7 84.1-86.7h1.9v-141.1h147q-35-31.1-35-80.3z"/>
	<path id="ரி" class="s0" aria-label="ரி"  d="m701.8 145.6q0-59.5 42.7-94.5 42.8-34.9 108.1-34.9 59.6 0 103.6 40.1 43.3 39.5 43.3 98.4v411.6h-54.3v-407.8q0-35.6-27.9-59.5-28.4-24.6-64.7-24.6-41.1 0-68.9 19.4-27.5 19.1-27.5 54.4 0 52.4 46.6 75.7h121.7v53.7h-106.8v289.3q-105.5 33.1-144.4 136.6l-46.6-31.7q40.5-98.1 136.6-139.2v-255h-119.7v288.1h-55v-341.8h146.9q-33.7-30.7-33.7-78.3zm-17.5 0q0-59.5 42.8-94.5 42.7-34.9 108-34.9 59.6 0 103.6 40.1 43.4 39.5 43.4 98.4v411.6h-54.4v-407.8q0-35.6-27.8-59.5-28.5-24.6-64.8-24.6-41.1 0-68.9 19.4-27.5 19.1-27.5 54.4 0 52.4 46.6 75.7h121.7v53.7h-106.8v289.3q-105.5 33.1-144.3 136.6l-46.6-31.7q40.4-98.1 136.5-139.2v-255h-119.7v288.1h-55v-341.8h146.9q-33.7-30.7-33.7-78.3z"/>
</svg>